<svg xmlns="http://www.w3.org/2000/svg" viewBox="0 0 120 120" fill="none">
  <!-- Concentric C design extracted from your logo in coral-pink -->
  <g transform="translate(10, 10)">
    <!-- Outer ring -->
    <path d="M50 10 C 75 10, 90 25, 90 50 C 90 75, 75 90, 50 90 C 35 90, 25 85, 15 75" 
          stroke="#FF6F61" stroke-width="8" fill="none" stroke-linecap="round"/>
    
    <!-- Middle ring -->
    <path d="M50 20 C 70 20, 80 30, 80 50 C 80 70, 70 80, 50 80 C 40 80, 32 76, 25 70" 
          stroke="#FF6F61" stroke-width="6" fill="none" stroke-linecap="round"/>
    
    <!-- Inner ring -->
    <path d="M50 30 C 65 30, 70 35, 70 50 C 70 65, 65 70, 50 70 C 45 70, 40 68, 35 65" 
          stroke="#FF6F61" stroke-width="4" fill="none" stroke-linecap="round"/>
    
    <!-- Center dot -->
    <circle cx="50" cy="50" r="4" fill="#FF6F61"/>
  </g>
</svg>